<mxfile host="app.diagrams.net" modified="2020-12-15T14:57:04.682Z" agent="5.0 (Windows NT 10.0; Win64; x64) AppleWebKit/537.36 (KHTML, like Gecko) Chrome/87.0.4280.88 Safari/537.36" etag="7zqtuS4B8ds2pxV98CFv" version="14.0.1" type="github">
  <diagram id="9y3VkKcXiHfpYq0d-S1G" name="Page-1">
    <mxGraphModel dx="1038" dy="548" grid="1" gridSize="10" guides="1" tooltips="1" connect="1" arrows="1" fold="1" page="1" pageScale="1" pageWidth="850" pageHeight="1100" math="0" shadow="0">
      <root>
        <mxCell id="0" />
        <mxCell id="1" parent="0" />
        <mxCell id="ZgByw4mVf4e1Dh-FFIhH-14" value="" style="edgeStyle=orthogonalEdgeStyle;rounded=0;orthogonalLoop=1;jettySize=auto;html=1;" edge="1" parent="1" source="ZgByw4mVf4e1Dh-FFIhH-1" target="ZgByw4mVf4e1Dh-FFIhH-4">
          <mxGeometry relative="1" as="geometry" />
        </mxCell>
        <mxCell id="ZgByw4mVf4e1Dh-FFIhH-1" value="" style="ellipse;fillColor=#000000;strokeColor=none;" vertex="1" parent="1">
          <mxGeometry x="410" y="60" width="30" height="30" as="geometry" />
        </mxCell>
        <mxCell id="ZgByw4mVf4e1Dh-FFIhH-2" value="main page" style="rounded=1;whiteSpace=wrap;html=1;absoluteArcSize=1;arcSize=14;strokeWidth=2;" vertex="1" parent="1">
          <mxGeometry x="330" y="480" width="190" height="50" as="geometry" />
        </mxCell>
        <mxCell id="ZgByw4mVf4e1Dh-FFIhH-12" value="" style="edgeStyle=orthogonalEdgeStyle;rounded=0;orthogonalLoop=1;jettySize=auto;html=1;entryX=0;entryY=0.5;entryDx=0;entryDy=0;entryPerimeter=0;fillColor=#d5e8d4;strokeColor=#82b366;" edge="1" parent="1" source="ZgByw4mVf4e1Dh-FFIhH-4" target="ZgByw4mVf4e1Dh-FFIhH-8">
          <mxGeometry relative="1" as="geometry" />
        </mxCell>
        <mxCell id="ZgByw4mVf4e1Dh-FFIhH-15" style="edgeStyle=orthogonalEdgeStyle;rounded=0;orthogonalLoop=1;jettySize=auto;html=1;exitX=0;exitY=0.5;exitDx=0;exitDy=0;exitPerimeter=0;entryX=1;entryY=0.5;entryDx=0;entryDy=0;fillColor=#f8cecc;strokeColor=#b85450;" edge="1" parent="1" source="ZgByw4mVf4e1Dh-FFIhH-4" target="ZgByw4mVf4e1Dh-FFIhH-13">
          <mxGeometry relative="1" as="geometry" />
        </mxCell>
        <mxCell id="ZgByw4mVf4e1Dh-FFIhH-17" style="edgeStyle=orthogonalEdgeStyle;rounded=0;orthogonalLoop=1;jettySize=auto;html=1;exitX=1;exitY=0.5;exitDx=0;exitDy=0;exitPerimeter=0;fillColor=#f8cecc;strokeColor=#b85450;" edge="1" parent="1" source="ZgByw4mVf4e1Dh-FFIhH-4" target="ZgByw4mVf4e1Dh-FFIhH-16">
          <mxGeometry relative="1" as="geometry" />
        </mxCell>
        <mxCell id="ZgByw4mVf4e1Dh-FFIhH-4" value="logged in?" style="strokeWidth=2;html=1;shape=mxgraph.flowchart.decision;whiteSpace=wrap;" vertex="1" parent="1">
          <mxGeometry x="375" y="130" width="100" height="100" as="geometry" />
        </mxCell>
        <mxCell id="ZgByw4mVf4e1Dh-FFIhH-8" value="" style="strokeWidth=2;html=1;shape=mxgraph.flowchart.annotation_2;align=left;labelPosition=right;pointerEvents=1;rotation=90;" vertex="1" parent="1">
          <mxGeometry x="400" y="290" width="50" height="100" as="geometry" />
        </mxCell>
        <mxCell id="ZgByw4mVf4e1Dh-FFIhH-9" value="job seeker" style="rounded=1;whiteSpace=wrap;html=1;absoluteArcSize=1;arcSize=14;strokeWidth=2;" vertex="1" parent="1">
          <mxGeometry x="450" y="360" width="110" height="60" as="geometry" />
        </mxCell>
        <mxCell id="ZgByw4mVf4e1Dh-FFIhH-10" value="employer" style="rounded=1;whiteSpace=wrap;html=1;absoluteArcSize=1;arcSize=14;strokeWidth=2;" vertex="1" parent="1">
          <mxGeometry x="290" y="360" width="110" height="60" as="geometry" />
        </mxCell>
        <mxCell id="ZgByw4mVf4e1Dh-FFIhH-18" style="edgeStyle=orthogonalEdgeStyle;rounded=0;orthogonalLoop=1;jettySize=auto;html=1;exitX=0.5;exitY=1;exitDx=0;exitDy=0;" edge="1" parent="1" source="ZgByw4mVf4e1Dh-FFIhH-13" target="ZgByw4mVf4e1Dh-FFIhH-8">
          <mxGeometry relative="1" as="geometry" />
        </mxCell>
        <mxCell id="ZgByw4mVf4e1Dh-FFIhH-13" value="registration" style="rounded=1;whiteSpace=wrap;html=1;absoluteArcSize=1;arcSize=14;strokeWidth=2;" vertex="1" parent="1">
          <mxGeometry x="230" y="155" width="100" height="50" as="geometry" />
        </mxCell>
        <mxCell id="ZgByw4mVf4e1Dh-FFIhH-16" value="guest" style="rounded=1;whiteSpace=wrap;html=1;absoluteArcSize=1;arcSize=14;strokeWidth=2;" vertex="1" parent="1">
          <mxGeometry x="520" y="155" width="100" height="50" as="geometry" />
        </mxCell>
        <mxCell id="ZgByw4mVf4e1Dh-FFIhH-19" value="" style="strokeWidth=2;html=1;shape=mxgraph.flowchart.annotation_2;align=left;labelPosition=right;pointerEvents=1;rotation=-90;" vertex="1" parent="1">
          <mxGeometry x="395" y="400" width="60" height="100" as="geometry" />
        </mxCell>
      </root>
    </mxGraphModel>
  </diagram>
</mxfile>
